# xmcd CD database file
#
# Track frame offsets:
#	187
#	14029
#	27829
#	43109
#	56004
#	69077
#	82417
#	92709
#	106529
#	125474
#	136899
#	148799
#	162047
#	175664
#	188697
#	203109
#	221524
#	235752
#	250124
#	261967
#	274897
#	288037
#
# Disc length: 4009 seconds
#
# Revision: 0
# Processed by: cddbd v1.5PL3 Copyright (c) Steve Scherf et al.
# Submitted via: CDex 1.50beta10
#
DISCID=370fa716
DTITLE=Various Artist - THE VERY BEST OF THE BLUES
DYEAR=1900
DGENRE=Blues
TTITLE0=MUDDY WATERS/I'M READY
TTITLE1=LITLLE WALTER/YOU'ER SO FINE
TTITLE2=SONNY BOY WILLIAMSON/CROSS MY HEART
TTITLE3=HOLIN' WOLF/BACK DOOR MAN
TTITLE4=J.B.LENOIR/EISENHOWER BLUES
TTITLE5=JOHN LEE HOOKER/UNION STATION BLUES
TTITLE6=ELMORE JAMES/TALK TO MY BABY
TTITLE7=ROBERT NIGHTHAWK/BLACK ANGEL BLUES
TTITLE8=B.B.KING/DON'T ANSWER THE DOOR
TTITLE9=JUNIOR PARKER/MOTHER IN-LOW BLUES
TTITLE10=BOBBY BLAND/LITTLE BOY BLUE
TTITLE11=JAMES DAVIS/BLUE MONDAY
TTITLE12=KOTO TAYLOR/WANG DANG DOODLE
TTITLE13=BUDDY GUY/LET ME LOVE YOU BABY
TTITLE14=OTIS RUSH/SO MANY ROADS
TTITLE15=LITTLE MILTON/FEEL SO BAD
TTITLE16=WILLIE MABON&HIS COMBO/I DON'T KNOW
TTITLE17=LOWELL FULSON/RECONSIDER BABY
TTITLE18=BIG MAMA THORNTON/ROCK-A-BYE BABY
TTITLE19=JIMMY WITHERSPOON/WHEN THE LIGHTS GO OUT
TTITLE20=JOE TURNER/PINEY BROWN BLUES
TTITLE21=LOUIS JORDAN/LET THE GOOD TIMES ROLL
EXTD=
EXTT0=
EXTT1=
EXTT2=
EXTT3=
EXTT4=
EXTT5=
EXTT6=
EXTT7=
EXTT8=
EXTT9=
EXTT10=
EXTT11=
EXTT12=
EXTT13=
EXTT14=
EXTT15=
EXTT16=
EXTT17=
EXTT18=
EXTT19=
EXTT20=
EXTT21=
PLAYORDER=
